<?xml version="1.0" encoding="utf-8"?>
<!-- Generator: Adobe Illustrator 16.0.0, SVG Export Plug-In . SVG Version: 6.00 Build 0)  -->
<!DOCTYPE svg PUBLIC "-//W3C//DTD SVG 1.1//EN" "http://www.w3.org/Graphics/SVG/1.1/DTD/svg11.dtd">
<svg version="1.1" id="Layer_1" xmlns="http://www.w3.org/2000/svg" xmlns:xlink="http://www.w3.org/1999/xlink" x="0px" y="0px"
	 width="1000px" height="1000px" viewBox="0 0 1000 1000" enable-background="new 0 0 1000 1000" xml:space="preserve">
<g>
	<path fill="#333333" d="M139.758,796.693h-13.5v-59.25h13.5l23.75,37l0,0v-37h13.5v59.25h-13.5l-23.75-37l0,0V796.693z"/>
	<path fill="#333333" d="M281.008,748.943h-20.5v11.5h19.5v12h-19.5v12h20.5v12h-34v-59.25h34V748.943z"/>
	<path fill="#333333" d="M346.008,737.193h41.75v12h-14v47.25h-13.5v-47.25h-14L346.008,737.193L346.008,737.193z"/>
	<path fill="#333333" d="M490.258,763.443l-9.5,33.25h-15l-16.75-59.25h14.75l10,41h0.25l10.75-41h10l10.75,41h1l10-41h15
		l-16.75,59.25h-15L490.258,763.443z"/>
	<path fill="#333333" d="M621.008,736.193c16.5,0,30,13.5,30,30.5c0,17.5-12.75,30.75-30,30.75c-17.75,0-30-13.5-30-30.75
		S604.508,736.193,621.008,736.193z M621.008,784.443c10.75,0,15.25-8.75,15.25-17.75c0-8.5-5-17.75-15.25-17.75
		c-10.5,0-15.25,8.75-15.25,17.75S610.008,784.443,621.008,784.443z"/>
	<path fill="#333333" d="M739.258,737.193c11,0,19.5,6,19.5,17.75c0,8.75-5,15-12.25,17l20.5,24.75h-17l-18-23.5v23.5h-13.5v-59.25
		L739.258,737.193L739.258,737.193z M733.008,763.693c5.25,0,11-0.25,11-8s-6-8-11-8h-1.5v15.994"/>
	<path fill="#333333" d="M866.008,796.693l-22-25.25v25.25h-13.5v-59.25h13.5v24.5l20.5-24.5h16.5l-24.25,28l27.5,31.25H866.008
		L866.008,796.693z"/>
</g>
<path fill="#0071BC" d="M817.508,477.194c1.75,21.5-5,41.75-18.75,57.25c-14.75,16.5-36.75,25.5-61.5,25.5h-535.75l0,0
	c-0.25,0-0.5,0-0.75,0h-0.25h-0.5l0,0c-21.75-0.25-42.25-8.75-57.5-24c-16.25-16-25-37.5-25.25-60.25l0,0c0-42.25,28.75-76.5,68-83
	c5.25-35.25,36-64,74-70c2.25-14,9-27.5,19.75-38.5c15.5-16,36.5-25,58-25c27.75,0,52,15,65,37.5c15.25-54.5,65.25-94.5,124.5-94.5
	c64.75,0,118.75,47.999,127.75,110.499c32.5-24.249,75.75-22,108.25,8.501l-3.5-3c26,21,35,49.5,33.75,73.5
	c-0.75,14.25-5.5,26.75-14,37c8.25,2.75,15,7.5,21.5,14c9,9,15.25,20.25,17,32.75l0,0
	C817.258,475.944,817.258,476.444,817.508,477.194C817.508,476.444,817.508,476.694,817.508,477.194z M857.758,275.444
	c-19-25.75-47.25-44.75-78.25-52.75c-7-1.5-14.25,3.25-15.75,10c-2.75,7,1.75,16,9.25,17.5c31.25,8.25,58.25,30.25,72.5,59.25
	c11.75,23.75,14.75,51.75,8.25,77.5c-1.75,7.25,3.5,15,11,16c6.75,2,14.25-2,16.5-8.5
	C891.508,354.194,882.758,308.944,857.758,275.444z M768.508,271.444c-10.75-2-19,11.25-14.25,20.5c1.75,4,5.75,6.75,10,7.75
	c16.25,4.249,30.5,15.499,38,30.499c6.75,13.251,8.25,28.75,4.5,43c-2,7.25,3.25,15.25,10.75,16.5c6.75,2,14.75-2,16.75-9
	c7-25.5,1.75-54-13.75-75.25C808.008,288.444,789.258,275.444,768.508,271.444z"/>
<g>
	<path fill="#363636" d="M117.508,604.443h69.25v19.75h-23.5v78.75h-22.5v-78.75h-23.5L117.508,604.443L117.508,604.443z"/>
	<path fill="#363636" d="M222.258,703.193h-22.5v-98.75h22.5v39.5h31.75v-39.5h22.5v98.75h-22.5v-39.75h-31.75V703.193z"/>
	<path fill="#363636" d="M352.008,624.443h-33.75v19.5h32.5v19.75h-32.5v19.75h34v19.75h-56.75v-98.75h56.5V624.443L352.008,624.443
		z"/>
	<path fill="#363636" d="M395.258,604.443h69.25v19.75h-23.5v78.75h-22.5v-78.75h-23.5L395.258,604.443L395.258,604.443z"/>
	<path fill="#363636" d="M500.008,703.193h-22.5v-98.75h22.5v39.5h31.75v-39.5h22.5v98.75h-22.5v-39.75h-31.75V703.193z"/>
	<path fill="#363636" d="M596.008,703.193h-22.5v-98.75h22.5V703.193z"/>
	<path fill="#363636" d="M637.508,703.193h-22.5v-98.75h22.5l39,61h0.25v-61h22.5v98.75h-22.5l-39-61h-0.25V703.193L637.508,703.193
		z"/>
	<path fill="#363636" d="M807.758,669.193c-5.5,25-26.5,35.75-45.75,35.75c-26.5,0-48-23-48-51c0-28.5,20.5-51,48-51
		c17.5,0,29.25,6.5,38,16.75l-14.75,16.25c-5.75-9.25-13.25-12.5-22-12.5c-13.75,0-25,13.75-25,30.75c0,16.75,11.25,30.25,25,30.25
		c10.75,0,21.5-7,21.5-19h-22.5v-17.5h45.5V669.193L807.758,669.193z"/>
	<path fill="#363636" d="M887.008,612.193l-9.25,18c0,0-9.75-6.75-19.75-6.75c-7.75,0-11.5,3.25-11.5,8.75s9.5,9.5,20.5,14.25
		c11,4.5,23.25,14,23.25,27c0,23.5-18,31.75-37.25,31.75c-23.25,0-37-13.25-37-13.25l11.25-19c0,0,13.25,11,24.25,11
		c5,0,14.25-0.5,14.25-9.75c0-7-10.5-10.5-22.25-16.25c-12-5.75-18.75-15-18.75-25.25c0-18.25,16.25-30.25,32-30.25
		C874.258,602.693,887.008,612.193,887.008,612.193z"/>
</g>
</svg>
